<svg version="1.0" xmlns="http://www.w3.org/2000/svg" width="933.333" height="710.667" viewBox="0 0 700 533"><path fill="#fff" d="M147.9 32.7c-31.5 31.9-50.3 52.2-67.4 72.8-5.4 6.6-19.8 22.1-32 34.5-31.7 32.4-41.7 46.6-46.7 66.1-3.9 15.7-1.2 29.3 7.6 38.3 5.8 5.9 13.4 10.1 33.4 18.5 16.4 6.8 22.7 10.6 28.2 16.9 6.4 7.2 7.2 11.5 7.5 40.1.2 20.3.7 29.2 3.3 50.9 4.2 34.4 8.4 64.2 13.3 93.7l5.1 30.6 1.1 6.7 17.1.6c15.4.6 48.4 1.5 124 3.4 28 .8 26.7 1 27-4.8.1-3.1-.3-3.3-23.5-15.7l-23.7-12.5-7.2-19c-3.9-10.4-7-19.2-6.8-19.4.4-.4 74.8 18.2 75.3 18.8.2.2 4.3 10 9.2 21.8 7.9 19.2 9.9 23 18.3 35.2 7.9 11.4 9.9 13.7 12 13.7 2.9.1 35.1-4.6 35.4-5.1.2-.2 2.6-11.1 5.5-24.3 2.9-13.2 5.9-27 6.8-30.6l1.5-6.6 14.1-3.7c7.8-2.1 29.4-7.8 48-12.7 33.2-8.8 33.9-9 39.2-7.8 2.9.6 5.9 1.5 6.6 2 1 .6.5 5.2-2.4 22-2 11.6-3.9 21.4-4.2 21.7-.3.3-20.8-3.4-45.6-8.2-24.8-4.8-45.3-8.5-45.6-8.3-.5.6 4.7 70 5.3 70.6.3.3 23.6-2 118.6-11.8 14.7-1.5 27-3 27.4-3.3.4-.5 41.4-179 41.4-180.6 0-.4-2.3 1.4-12.5 10.1-3.8 3.1-7.5 5.7-8.2 5.7-4.9 0 4.7-26 14.9-40.7 8.4-12.1 18.6-22.9 43-45.8l24.6-23.2 16.4-8.3c30.4-15.4 38.3-21.2 43.4-31.5 14.6-30-18.9-82.6-88.1-138.1-15.3-12.3-14.7-12-18.4-8.9l-3.1 2.6 3.4 6.7c20 39.9 31.7 80.6 28.7 100.1-4 25.5-23.6 60.4-45.7 81-25.5 23.9-52.6 34.8-78.9 32-18-2-37-10-78.8-33.1-44.5-24.6-62.7-30.5-90.7-29.5-23 .9-30.8 3.4-87 27.9-34.7 15.2-58.7 19.3-80 13.8-15.7-4-30.4-12.6-38.3-22.2-15.7-19.1-18.6-52-8.3-92 4-15.5 13.3-43.6 18.1-54.8 6.6-15.5 24.5-42.5 45.2-68.3C180.4 13.6 185 7.5 185 7c0-.9-4.8-5-6-5-.4 0-14.4 13.8-31.1 30.7z"/></svg>
